# xmcd
#
# Track frame offsets:
#     150
#     19803
#     34870
#     55965
#     74865
#     110528
#     131358
#     145750
#     168298
#     187508
#
# Disc length: 2929
#
# Revision: 27
# Processed by: cddbd v1.5.2PL0 Copyright (c) Steve Scherf et al.
# Submitted via: fre:ac v1.0.17
#
DISCID=870b6f0a
DTITLE=The Doors / L.A.Woman
DYEAR=1971
DGENRE=Rock
TTITLE0=The Changeling
TTITLE1=Love Her Madly
TTITLE2=Been Down So Long
TTITLE3=Cars Hiss By My Window
TTITLE4=L.A.Woman
TTITLE5=L'America
TTITLE6=Hyacinth House
TTITLE7=Crawling King Snake
TTITLE8=The Wasp (Texas Radio and the Big Beat)
TTITLE9=Riders On The Storm
EXTD=YEAR: 1971\n
EXTT0=Jim Morrison; John Densmore; Ray Manzarek; Robbie Krieger
EXTT1=Jim Morrison; John Densmore; Ray Manzarek; Robbie Krieger
EXTT2=Jim Morrison; John Densmore; Ray Manzarek; Robbie Krieger
EXTT3=Jim Morrison; John Densmore; Ray Manzarek; Robbie Krieger
EXTT4=Jim Morrison; John Densmore; Ray Manzarek; Robbie Krieger
EXTT5=Jim Morrison; John Densmore; Ray Manzarek; Robbie Krieger
EXTT6=Jim Morrison; John Densmore; Ray Manzarek; Robbie Krieger
EXTT7=John Lee Hooker
EXTT8=Jim Morrison; John Densmore; Ray Manzarek; Robbie Krieger
EXTT9=Jim Morrison; John Densmore; Ray Manzarek; Robbie Krieger
PLAYORDER=
.
